# xmcd
#
# Track frame offsets: 
#        150
#        15915
#        27967
#        41127
#        52812
#        68197
#        81407
#        95455
#        109810
#        123817
#
# Disc length: 1840 seconds
#
# Revision: 2
# Processed by: cddbd v1.4PL0 Copyright (c) Steve Scherf et al.
# Submitted via: ExactAudioCopy v0.90b3
#
DISCID=76072e0a
DTITLE=Lacy J. Dalton - Greatest Hits
DYEAR=1900
DGENRE=Country
TTITLE0=Takin' It Easy
TTITLE1=Slow Down
TTITLE2=Crazy Blue Eyes
TTITLE3=Hard Times
TTITLE4=Everybody Makes Mistakes
TTITLE5=Dream Baby (How Long Must I Dream)
TTITLE6=Whisper
TTITLE7=Losing Kind Of Love
TTITLE8=Tennessee Waltz
TTITLE9=16Th Avenue
EXTD=
EXTT0=
EXTT1=
EXTT2=
EXTT3=
EXTT4=
EXTT5=\n
EXTT6=
EXTT7=
EXTT8=
EXTT9=
PLAYORDER=
